# xmcd
# 
# Track frame offsets:
#     150
#     93391
#     172962
#     252591
# 
# Disc length: 4405
# 
# Revision: 0
# Processed by: cddbd v1.5.2PL0 Copyright (c) Steve Scherf et al.
# Submitted via: BonkEnc v1.0.8
# 
DISCID=2c113304
DTITLE=Haruki Murakami - Mister Aufziehvogel - CD 05 - Die diebische Elster
DYEAR=2004
DGENRE=Speech
TTITLE0=01 - 05
TTITLE1=02 - 05
TTITLE2=03 - 05
TTITLE3=04 - 05
EXTD=
EXTT0=
EXTT1=
EXTT2=
EXTT3=
PLAYORDER=
